<svg width="24" height="24" viewBox="0 0 24 24" fill="none" xmlns="http://www.w3.org/2000/svg">
<path d="M11.999 7.31055C10.7726 7.31055 9.59651 7.79332 8.72934 8.65266C7.86217 9.512 7.375 10.6775 7.375 11.8928C7.375 13.1081 7.86217 14.2736 8.72934 15.1329C9.59651 15.9923 10.7726 16.475 11.999 16.475C13.2254 16.475 14.4015 15.9923 15.2687 15.1329C16.1358 14.2736 16.623 13.1081 16.623 11.8928C16.623 10.6775 16.1358 9.512 15.2687 8.65266C14.4015 7.79332 13.2254 7.31055 11.999 7.31055V7.31055ZM11.999 14.8687C11.2023 14.8687 10.4382 14.555 9.87485 13.9968C9.31149 13.4385 8.995 12.6813 8.995 11.8918C8.995 11.1023 9.31149 10.3451 9.87485 9.78684C10.4382 9.22856 11.2023 8.91493 11.999 8.91493C12.7957 8.91493 13.5598 9.22856 14.1231 9.78684C14.6865 10.3451 15.003 11.1023 15.003 11.8918C15.003 12.6813 14.6865 13.4385 14.1231 13.9968C13.5598 14.555 12.7957 14.8687 11.999 14.8687V14.8687Z" fill="#6E7191"/>
<path d="M16.8055 8.20977C17.4009 8.20977 17.8835 7.7315 17.8835 7.14151C17.8835 6.55152 17.4009 6.07324 16.8055 6.07324C16.2102 6.07324 15.7275 6.55152 15.7275 7.14151C15.7275 7.7315 16.2102 8.20977 16.8055 8.20977Z" fill="#6E7191"/>
<path d="M20.533 6.05549C20.3015 5.46307 19.9477 4.92508 19.4943 4.47594C19.0409 4.02681 18.4979 3.67644 17.9 3.44726C17.2003 3.18699 16.4611 3.04625 15.714 3.03105C14.751 2.98943 14.446 2.97754 12.004 2.97754C9.56195 2.97754 9.24895 2.97754 8.29395 3.03105C7.54734 3.04548 6.80871 3.18624 6.10995 3.44726C5.51189 3.67617 4.96872 4.02645 4.51529 4.47562C4.06186 4.92478 3.70818 5.46292 3.47695 6.05549C3.21426 6.74879 3.07257 7.48134 3.05795 8.22176C3.01495 9.17507 3.00195 9.47732 3.00195 11.8983C3.00195 14.3182 3.00195 14.6264 3.05795 15.5748C3.07295 16.316 3.21395 17.0473 3.47695 17.742C3.70883 18.3344 4.06285 18.8723 4.51639 19.3214C4.96993 19.7705 5.51302 20.1209 6.11095 20.3502C6.80839 20.621 7.54732 20.7718 8.29595 20.7962C9.25895 20.8378 9.56395 20.8507 12.006 20.8507C14.448 20.8507 14.761 20.8507 15.716 20.7962C16.4631 20.7811 17.2022 20.6407 17.902 20.381C18.4997 20.1512 19.0426 19.8006 19.4959 19.3513C19.9493 18.9021 20.3031 18.3641 20.535 17.7717C20.798 17.0781 20.939 16.3467 20.954 15.6055C20.997 14.6522 21.01 14.3499 21.01 11.929C21.01 9.50804 21.01 9.20083 20.954 8.25248C20.9423 7.50159 20.7999 6.75834 20.533 6.05549V6.05549ZM19.315 15.5014C19.3085 16.0725 19.2033 16.6383 19.004 17.1742C18.8538 17.5595 18.6239 17.9095 18.329 18.2015C18.0342 18.4935 17.6809 18.7211 17.292 18.8697C16.7572 19.0664 16.1923 19.1706 15.622 19.1779C14.672 19.2215 14.404 19.2324 11.968 19.2324C9.52995 19.2324 9.28095 19.2324 8.31295 19.1779C7.74288 19.171 7.17828 19.0668 6.64395 18.8697C6.25364 18.7221 5.89895 18.4948 5.60284 18.2028C5.30673 17.9107 5.07579 17.5603 4.92495 17.1742C4.7284 16.6441 4.62326 16.0849 4.61395 15.5203C4.57095 14.5788 4.56095 14.3133 4.56095 11.8992C4.56095 9.48425 4.56095 9.2375 4.61395 8.27725C4.62042 7.70647 4.72561 7.14102 4.92495 6.60548C5.22995 5.82361 5.85495 5.20821 6.64395 4.90894C7.17854 4.71287 7.74298 4.60864 8.31295 4.60075C9.26395 4.55814 9.53095 4.54625 11.968 4.54625C14.405 4.54625 14.655 4.54625 15.622 4.60075C16.1924 4.60755 16.7573 4.71181 17.292 4.90894C17.6809 5.05786 18.0341 5.28571 18.3289 5.57788C18.6238 5.87004 18.8537 6.22007 19.004 6.60548C19.2005 7.1356 19.3056 7.69472 19.315 8.25941C19.358 9.20183 19.369 9.46641 19.369 11.8814C19.369 14.2954 19.369 14.555 19.326 15.5024H19.315V15.5014Z" fill="#6E7191"/>
</svg>
