<svg width="174" height="28" viewBox="0 0 174 28" fill="none" xmlns="http://www.w3.org/2000/svg">
<path d="M11.6523 1.01036C12.4727 1.01036 13.2109 1.14972 13.8672 1.42843C14.5469 1.68391 15.168 1.97424 15.7305 2.2994C16.3164 2.62456 16.8672 2.92649 17.3828 3.20521C17.8984 3.46069 18.4258 3.58843 18.9648 3.58843C19.3867 3.56521 19.8672 3.50714 20.4062 3.41424C20.875 3.32133 21.4141 3.18198 22.0234 2.99618C22.6562 2.78714 23.3594 2.4852 24.1328 2.09037C23.3594 2.8336 22.7266 3.46069 22.2344 3.97166C21.7656 4.4594 21.4023 4.86586 21.1445 5.19102C20.8398 5.56263 20.6172 5.85296 20.4766 6.06199C20.3359 6.31747 20.125 6.7007 19.8438 7.21167C19.5859 7.67618 19.2344 8.30329 18.7891 9.09296C18.3438 9.85942 17.7812 10.8698 17.1016 12.124C17.1016 10.5214 16.9375 9.27877 16.6094 8.39619C16.3047 7.51361 15.9648 6.84005 15.5898 6.37554C15.1445 5.84134 14.6406 5.50457 14.0781 5.36521C13.5625 5.29554 13.0469 5.38844 12.5312 5.64392C12.0156 5.87619 11.5 6.22457 10.9844 6.68909C10.4922 7.15361 10.0117 7.71103 9.54293 8.36135C9.09762 8.98845 8.68746 9.65039 8.31246 10.3472C7.9609 11.0439 7.66793 11.7524 7.43355 12.4723C7.19918 13.1691 7.04684 13.8194 6.97652 14.4233C6.90621 14.9575 6.89449 15.5846 6.94137 16.3046C6.98824 17.0013 7.09371 17.7214 7.25777 18.4646C7.42184 19.1846 7.63277 19.893 7.89058 20.5897C8.1484 21.2866 8.4648 21.9137 8.8398 22.4711C9.23824 23.0052 9.68355 23.4466 10.1758 23.7949C10.668 24.1201 11.2305 24.2711 11.8633 24.2479C12.5664 24.2014 13.2578 23.9923 13.9375 23.6207C14.5234 23.3188 15.1211 22.8543 15.7305 22.2272C16.3398 21.5768 16.8672 20.6595 17.3125 19.4749L22.5156 20.4156C21.0156 22.2272 19.5508 23.5859 18.1211 24.4917C16.7148 25.3975 15.4492 26.0362 14.3242 26.4078C13.0117 26.8259 11.7695 27.0233 10.5977 27.0001C9.12105 26.8375 7.73824 26.3962 6.44918 25.6763C5.16012 24.9562 4.04684 24.0853 3.10934 23.0633C2.19527 22.0182 1.48043 20.8801 0.964805 19.6491C0.44918 18.4181 0.226523 17.2104 0.296836 16.0259C0.343711 15.2362 0.507773 14.3188 0.789023 13.2736C1.07027 12.2052 1.44527 11.1136 1.91402 9.99873C2.40621 8.88393 2.99215 7.79232 3.67184 6.72393C4.35152 5.65554 5.10152 4.70327 5.92184 3.86714C6.74215 3.00779 7.63277 2.32262 8.59371 1.81165C9.57808 1.27746 10.5977 1.01036 11.6523 1.01036ZM23.3672 11.1833L29.8359 11.253C29.4609 12.6698 29.1797 13.8775 28.9922 14.8762C28.8281 15.8749 28.7227 16.7111 28.6758 17.3846C28.582 18.1511 28.5586 18.8014 28.6055 19.3356C28.6758 19.8233 28.793 20.3459 28.957 20.9034C29.0977 21.3678 29.3086 21.9021 29.5898 22.5059C29.8711 23.1098 30.2461 23.7137 30.7148 24.3176C30.4336 24.2246 30.1289 24.1549 29.8008 24.1085C29.4727 24.062 29.168 24.0272 28.8867 24.004C28.5586 23.9807 28.2305 23.9807 27.9023 24.004C27.5742 24.0272 27.2109 24.062 26.8125 24.1085C26.4844 24.1549 26.0859 24.213 25.6172 24.2827C25.1484 24.3523 24.6562 24.4453 24.1406 24.5614C24.4922 23.5163 24.7617 22.6104 24.9492 21.844C25.1602 21.0775 25.3125 20.4388 25.4062 19.9279C25.5 19.324 25.5586 18.8362 25.582 18.4646C25.582 18.0001 25.582 17.4775 25.582 16.8969C25.582 16.293 25.582 15.7124 25.582 15.155C25.582 14.5975 25.5703 14.1098 25.5469 13.6917C25.5234 13.2504 25.4766 12.9716 25.4062 12.8556L25.0547 12.5072C24.9141 12.391 24.7031 12.2284 24.4219 12.0194C24.1641 11.7871 23.8125 11.5085 23.3672 11.1833ZM25.8633 5.81811C26.3555 5.56263 26.8477 5.49296 27.3398 5.60909C27.8555 5.72521 28.2539 5.94586 28.5352 6.27102C28.8164 6.59618 28.9102 6.97941 28.8164 7.4207C28.7461 7.86199 28.3711 8.29168 27.6914 8.70974C27.0117 9.10458 26.4141 9.24393 25.8984 9.12781C25.3828 9.01168 25.0195 8.76781 24.8086 8.39619C24.5977 8.02458 24.5625 7.59489 24.7031 7.10716C24.8438 6.59618 25.2305 6.16651 25.8633 5.81811ZM33.5703 22.924C33.7344 22.1575 33.8516 21.484 33.9219 20.9034C34.0156 20.2995 34.0859 19.8001 34.1328 19.4052C34.1797 18.9408 34.2031 18.5459 34.2031 18.2207C34.1797 17.8259 34.1562 17.3613 34.1328 16.8272C34.1328 16.2698 34.1094 15.724 34.0625 15.1897C34.0391 14.6323 34.0039 14.1446 33.957 13.7266C33.9102 13.2852 33.8516 12.9716 33.7812 12.7858C33.6875 12.6 33.5586 12.4026 33.3945 12.1936C33.0664 11.7987 32.5859 11.4155 31.9531 11.0439C32.4922 10.9278 32.9492 10.8349 33.3242 10.7652C33.7227 10.6723 34.0508 10.591 34.3086 10.5214C34.5898 10.4284 34.8359 10.3472 35.0469 10.2775C35.2344 10.2078 35.457 10.1382 35.7148 10.0685C35.9258 10.022 36.1836 9.96395 36.4883 9.89426C36.793 9.82458 37.1445 9.74329 37.543 9.65039L37.4375 12.8207C38.1875 11.9382 38.9492 11.2762 39.7227 10.8349C40.4961 10.3936 41.2227 10.0801 41.9023 9.89426C42.6758 9.662 43.4375 9.54587 44.1875 9.54587C45.125 9.59232 45.9922 9.74329 46.7891 9.99873C47.6094 10.2543 48.3125 10.5562 48.8984 10.9046C49.5078 11.2297 50 11.5781 50.375 11.9498C50.75 12.3214 50.9727 12.6465 51.043 12.9253C51.3242 13.831 51.3945 14.6672 51.2539 15.4336C51.1133 16.1768 50.9258 16.9085 50.6914 17.6285C50.4805 18.3253 50.293 19.022 50.1289 19.7188C49.9883 20.4156 50.0469 21.1704 50.3047 21.9833C50.3984 22.1923 50.4922 22.4014 50.5859 22.6104C50.6797 22.7962 50.7969 22.982 50.9375 23.1678C51.0781 23.3536 51.2422 23.5047 51.4297 23.6207C51.1719 23.5975 50.9141 23.5859 50.6562 23.5859C50.3984 23.5626 50.1641 23.5395 49.9531 23.5163C49.6953 23.493 49.4609 23.4698 49.25 23.4466C49.0156 23.4233 48.6992 23.4117 48.3008 23.4117C47.6211 23.4117 46.5664 23.4466 45.1367 23.5163C45.3477 23.0285 45.5117 22.622 45.6289 22.2969C45.7695 21.9485 45.8867 21.6698 45.9805 21.4607C46.0742 21.2052 46.1445 21.0078 46.1914 20.8685C46.4727 20.1949 46.6367 19.4285 46.6836 18.5691C46.7539 17.7098 46.6953 16.8388 46.5078 15.9562C46.4375 15.6543 46.3203 15.2943 46.1562 14.8762C45.9922 14.4581 45.7695 14.0517 45.4883 13.6568C45.2305 13.262 44.9141 12.9253 44.5391 12.6465C44.1875 12.3678 43.7773 12.2052 43.3086 12.1588C42.8398 12.1124 42.3125 12.2284 41.7266 12.5072C41.1641 12.7858 40.5547 13.2969 39.8984 14.0401C39.4062 14.6672 39.0195 15.4336 38.7383 16.3395C38.4805 17.1059 38.3047 18.0698 38.2109 19.231C38.1172 20.3691 38.2578 21.7046 38.6328 23.2375C38.3047 23.191 38 23.1678 37.7188 23.1678C37.4375 23.1447 37.2031 23.1214 37.0156 23.0982C36.7812 23.075 36.5703 23.0517 36.3828 23.0285C36.1719 23.0285 35.9375 23.0169 35.6797 22.9936C35.4453 22.9936 35.1523 22.9936 34.8008 22.9936C34.4492 22.9704 34.0391 22.9471 33.5703 22.924ZM63.2148 21.1472C63.8711 21.1472 64.4805 21.0775 65.043 20.9382C65.5117 20.822 65.957 20.6362 66.3789 20.3807C66.8242 20.1021 67.1172 19.6956 67.2578 19.1613C67.7266 19.2543 68.125 19.3356 68.4531 19.4052C68.7812 19.4517 69.0625 19.4982 69.2969 19.5447C69.5547 19.6143 69.7773 19.6607 69.9648 19.684C70.1523 19.7305 70.375 19.7768 70.6328 19.8233C70.8672 19.8698 71.1484 19.9279 71.4766 19.9975C71.8281 20.044 72.2383 20.1137 72.707 20.2065C72.3555 20.1601 71.9922 20.1949 71.6172 20.3111C71.2656 20.4272 70.9258 20.5549 70.5977 20.6943C70.2227 20.8569 69.8711 21.0543 69.543 21.2866C69.332 21.4259 69.0859 21.6349 68.8047 21.9137C68.5469 22.1923 68.1719 22.4595 67.6797 22.715C67.1875 22.9704 66.5312 23.191 65.7109 23.3768C64.9141 23.5395 63.8828 23.5975 62.6172 23.551C61.0938 23.5047 59.8164 23.2375 58.7852 22.7498C57.7539 22.2388 56.9219 21.6233 56.2891 20.9034C55.6562 20.1601 55.1992 19.3588 54.918 18.4995C54.6367 17.6401 54.4844 16.8388 54.4609 16.0956C54.4375 15.3524 54.6602 14.5742 55.1289 13.7613C55.5977 12.9485 56.2539 12.2052 57.0977 11.5317C57.9648 10.8581 59.0078 10.3123 60.2266 9.89426C61.4453 9.45296 62.7812 9.23232 64.2344 9.23232C65.0781 9.23232 65.8516 9.33684 66.5547 9.54587C67.2812 9.73167 67.9375 9.98714 68.5234 10.3123C69.1328 10.6375 69.6602 11.0091 70.1055 11.4271C70.5508 11.822 70.9258 12.2284 71.2305 12.6465C71.5352 13.0878 71.793 13.5524 72.0039 14.0401C72.1914 14.4581 72.3438 14.9343 72.4609 15.4685C72.5781 16.0026 72.6133 16.5485 72.5664 17.1059C70.7852 17.1524 69.3438 17.1872 68.2422 17.2104C67.1641 17.2336 66.3203 17.2452 65.7109 17.2452H64.1289H62.9336C62.5117 17.2452 61.9609 17.2569 61.2812 17.2801C60.6016 17.3033 59.7695 17.3382 58.7852 17.3846C58.9023 18.3137 59.1953 19.0336 59.6641 19.5447C60.1562 20.0323 60.6719 20.4039 61.2109 20.6595C61.8203 20.9382 62.4883 21.1008 63.2148 21.1472ZM60.0508 14.8762C60.8008 14.9227 61.4219 14.9575 61.9141 14.9807C62.4297 15.0039 62.8516 15.0272 63.1797 15.0504C63.5312 15.0736 63.8125 15.0853 64.0234 15.0853H64.9023C65.4883 15.0853 66.5781 15.0504 68.1719 14.9807C68.1016 13.9587 67.8789 13.1807 67.5039 12.6465C67.1523 12.1124 66.7773 11.7175 66.3789 11.462C65.9102 11.1833 65.3945 11.0207 64.832 10.9742C63.3086 10.9975 62.1719 11.3111 61.4219 11.9149C60.6953 12.5188 60.2383 13.5059 60.0508 14.8762ZM87.1289 0.48778C88.3945 0.534232 89.6719 0.76649 90.9609 1.18455C92.2734 1.5794 93.4805 2.22972 94.582 3.13553C95.6836 4.01811 96.6211 5.16779 97.3945 6.58457C98.168 7.97812 98.6484 9.68523 98.8359 11.7059C99 13.355 98.7891 14.9923 98.2031 16.6181C97.6406 18.2207 96.8555 19.6956 95.8477 21.0427C94.8398 22.3898 93.6797 23.5395 92.3672 24.4917C91.0547 25.4207 89.7422 26.0362 88.4297 26.3382C87.6328 26.524 86.7539 26.5472 85.793 26.4078C84.8555 26.2453 83.8945 25.9549 82.9102 25.5369C81.9492 25.0956 81 24.5382 80.0625 23.8646C79.1484 23.191 78.3164 22.4246 77.5664 21.5652C76.8164 20.6827 76.1836 19.7305 75.668 18.7085C75.1758 17.6866 74.8711 16.6181 74.7539 15.5033C74.6367 14.5742 74.625 13.5524 74.7188 12.4375C74.8359 11.2994 75.0586 10.1729 75.3867 9.05812C75.7383 7.92006 76.2188 6.82844 76.8281 5.78328C77.4609 4.71489 78.2578 3.78585 79.2188 2.99618C80.1797 2.18326 81.3047 1.55617 82.5938 1.11488C83.9062 0.65036 85.418 0.441327 87.1289 0.48778ZM80.8359 14.5975C80.5078 17.0827 80.7422 19.0801 81.5391 20.5897C82.3594 22.0995 83.5898 23.0169 85.2305 23.3421C86.0273 23.5047 86.7891 23.3421 87.5156 22.8543C88.2656 22.3434 88.9453 21.6117 89.5547 20.6595C90.1641 19.7072 90.6914 18.5923 91.1367 17.315C91.582 16.0375 91.9102 14.702 92.1211 13.3085C92.332 11.9149 92.3438 10.6607 92.1562 9.54587C91.9922 8.40781 91.6992 7.44393 91.2773 6.65425C90.8555 5.84134 90.3398 5.21425 89.7305 4.77296C89.1445 4.33166 88.5352 4.08779 87.9023 4.04133C86.8008 3.97166 85.8398 4.26198 85.0195 4.91231C84.1992 5.5394 83.5078 6.36392 82.9453 7.38586C82.3828 8.40781 81.9258 9.55748 81.5742 10.8349C81.2461 12.1124 81 13.3665 80.8359 14.5975ZM101.727 22.924C101.891 22.1575 102.008 21.484 102.078 20.9034C102.172 20.2995 102.242 19.8001 102.289 19.4052C102.336 18.9408 102.359 18.5459 102.359 18.2207C102.336 17.8259 102.312 17.3613 102.289 16.8272C102.289 16.2698 102.266 15.724 102.219 15.1897C102.195 14.6323 102.16 14.1446 102.113 13.7266C102.066 13.2852 102.008 12.9716 101.938 12.7858C101.844 12.6 101.715 12.4026 101.551 12.1936C101.223 11.7987 100.742 11.4155 100.109 11.0439C100.648 10.9278 101.105 10.8349 101.48 10.7652C101.879 10.6723 102.207 10.591 102.465 10.5214C102.746 10.4284 102.992 10.3472 103.203 10.2775C103.391 10.2078 103.613 10.1382 103.871 10.0685C104.082 10.022 104.34 9.96395 104.645 9.89426C104.949 9.82458 105.301 9.74329 105.699 9.65039L105.594 12.8207C106.344 11.9382 107.105 11.2762 107.879 10.8349C108.652 10.3936 109.379 10.0801 110.059 9.89426C110.832 9.662 111.594 9.54587 112.344 9.54587C113.281 9.59232 114.148 9.74329 114.945 9.99873C115.766 10.2543 116.469 10.5562 117.055 10.9046C117.664 11.2297 118.156 11.5781 118.531 11.9498C118.906 12.3214 119.129 12.6465 119.199 12.9253C119.48 13.831 119.551 14.6672 119.41 15.4336C119.27 16.1768 119.082 16.9085 118.848 17.6285C118.637 18.3253 118.449 19.022 118.285 19.7188C118.145 20.4156 118.203 21.1704 118.461 21.9833C118.555 22.1923 118.648 22.4014 118.742 22.6104C118.836 22.7962 118.953 22.982 119.094 23.1678C119.234 23.3536 119.398 23.5047 119.586 23.6207C119.328 23.5975 119.07 23.5859 118.812 23.5859C118.555 23.5626 118.32 23.5395 118.109 23.5163C117.852 23.493 117.617 23.4698 117.406 23.4466C117.172 23.4233 116.855 23.4117 116.457 23.4117C115.777 23.4117 114.723 23.4466 113.293 23.5163C113.504 23.0285 113.668 22.622 113.785 22.2969C113.926 21.9485 114.043 21.6698 114.137 21.4607C114.23 21.2052 114.301 21.0078 114.348 20.8685C114.629 20.1949 114.793 19.4285 114.84 18.5691C114.91 17.7098 114.852 16.8388 114.664 15.9562C114.594 15.6543 114.477 15.2943 114.312 14.8762C114.148 14.4581 113.926 14.0517 113.645 13.6568C113.387 13.262 113.07 12.9253 112.695 12.6465C112.344 12.3678 111.934 12.2052 111.465 12.1588C110.996 12.1124 110.469 12.2284 109.883 12.5072C109.32 12.7858 108.711 13.2969 108.055 14.0401C107.562 14.6672 107.176 15.4336 106.895 16.3395C106.637 17.1059 106.461 18.0698 106.367 19.231C106.273 20.3691 106.414 21.7046 106.789 23.2375C106.461 23.191 106.156 23.1678 105.875 23.1678C105.594 23.1447 105.359 23.1214 105.172 23.0982C104.938 23.075 104.727 23.0517 104.539 23.0285C104.328 23.0285 104.094 23.0169 103.836 22.9936C103.602 22.9936 103.309 22.9936 102.957 22.9936C102.605 22.9704 102.195 22.9471 101.727 22.924ZM131.371 21.1472C132.027 21.1472 132.637 21.0775 133.199 20.9382C133.668 20.822 134.113 20.6362 134.535 20.3807C134.98 20.1021 135.273 19.6956 135.414 19.1613C135.883 19.2543 136.281 19.3356 136.609 19.4052C136.938 19.4517 137.219 19.4982 137.453 19.5447C137.711 19.6143 137.934 19.6607 138.121 19.684C138.309 19.7305 138.531 19.7768 138.789 19.8233C139.023 19.8698 139.305 19.9279 139.633 19.9975C139.984 20.044 140.395 20.1137 140.863 20.2065C140.512 20.1601 140.148 20.1949 139.773 20.3111C139.422 20.4272 139.082 20.5549 138.754 20.6943C138.379 20.8569 138.027 21.0543 137.699 21.2866C137.488 21.4259 137.242 21.6349 136.961 21.9137C136.703 22.1923 136.328 22.4595 135.836 22.715C135.344 22.9704 134.688 23.191 133.867 23.3768C133.07 23.5395 132.039 23.5975 130.773 23.551C129.25 23.5047 127.973 23.2375 126.941 22.7498C125.91 22.2388 125.078 21.6233 124.445 20.9034C123.812 20.1601 123.355 19.3588 123.074 18.4995C122.793 17.6401 122.641 16.8388 122.617 16.0956C122.594 15.3524 122.816 14.5742 123.285 13.7613C123.754 12.9485 124.41 12.2052 125.254 11.5317C126.121 10.8581 127.164 10.3123 128.383 9.89426C129.602 9.45296 130.938 9.23232 132.391 9.23232C133.234 9.23232 134.008 9.33684 134.711 9.54587C135.438 9.73167 136.094 9.98714 136.68 10.3123C137.289 10.6375 137.816 11.0091 138.262 11.4271C138.707 11.822 139.082 12.2284 139.387 12.6465C139.691 13.0878 139.949 13.5524 140.16 14.0401C140.348 14.4581 140.5 14.9343 140.617 15.4685C140.734 16.0026 140.77 16.5485 140.723 17.1059C138.941 17.1524 137.5 17.1872 136.398 17.2104C135.32 17.2336 134.477 17.2452 133.867 17.2452H132.285H131.09C130.668 17.2452 130.117 17.2569 129.438 17.2801C128.758 17.3033 127.926 17.3382 126.941 17.3846C127.059 18.3137 127.352 19.0336 127.82 19.5447C128.312 20.0323 128.828 20.4039 129.367 20.6595C129.977 20.9382 130.645 21.1008 131.371 21.1472ZM128.207 14.8762C128.957 14.9227 129.578 14.9575 130.07 14.9807C130.586 15.0039 131.008 15.0272 131.336 15.0504C131.688 15.0736 131.969 15.0853 132.18 15.0853H133.059C133.645 15.0853 134.734 15.0504 136.328 14.9807C136.258 13.9587 136.035 13.1807 135.66 12.6465C135.309 12.1124 134.934 11.7175 134.535 11.462C134.066 11.1833 133.551 11.0207 132.988 10.9742C131.465 10.9975 130.328 11.3111 129.578 11.9149C128.852 12.5188 128.395 13.5059 128.207 14.8762ZM143.543 2.19488C143.988 2.52004 144.434 2.76391 144.879 2.92649C145.348 3.06585 145.77 3.15876 146.145 3.20521C146.566 3.27489 146.988 3.2865 147.41 3.24004C147.809 3.1936 148.219 3.05424 148.641 2.82198C149.062 2.58972 149.555 2.34585 150.117 2.09037C150.68 1.83488 151.336 1.61424 152.086 1.42843C152.859 1.2194 153.785 1.11488 154.863 1.11488C155.332 1.11488 155.824 1.20778 156.34 1.39359C156.879 1.5794 157.395 1.82326 157.887 2.1252C158.379 2.40391 158.824 2.71747 159.223 3.06585C159.645 3.41424 159.961 3.76263 160.172 4.11102C160.406 4.4594 160.57 5.02844 160.664 5.81811C160.758 6.58457 160.793 7.4207 160.77 8.32651C160.746 9.23233 160.664 10.1266 160.523 11.0091C160.406 11.8917 160.23 12.6117 159.996 13.1691C159.715 13.6568 159.176 14.284 158.379 15.0504C157.699 15.7008 156.68 16.5369 155.32 17.5588C153.961 18.5807 152.133 19.8001 149.836 21.2169C151.195 21.1936 152.332 21.1588 153.246 21.1124C154.184 21.0427 154.945 20.973 155.531 20.9034C156.211 20.8104 156.75 20.7175 157.148 20.6246C157.5 20.4853 157.875 20.2879 158.273 20.0323C158.602 19.8001 158.953 19.4982 159.328 19.1266C159.727 18.7549 160.113 18.2672 160.488 17.6633C160.559 18.9175 160.629 19.9046 160.699 20.6246C160.746 21.0427 160.781 21.4027 160.805 21.7046C160.828 21.9833 160.852 22.3085 160.875 22.6801C160.898 23.0052 160.91 23.3768 160.91 23.7949C160.934 24.213 160.969 24.6543 161.016 25.1189C159.844 24.8169 158.777 24.5846 157.816 24.422C156.855 24.2362 156.035 24.1085 155.355 24.0388C154.559 23.9459 153.844 23.8995 153.211 23.8995C152.555 23.9227 151.828 23.9807 151.031 24.0737C150.328 24.1665 149.484 24.3059 148.5 24.4917C147.539 24.6543 146.449 24.8982 145.23 25.2233C145.137 24.9678 145.055 24.7124 144.984 24.4569C144.914 24.1781 144.855 23.9111 144.809 23.6556C144.738 23.3768 144.68 23.0982 144.633 22.8194C144.586 22.5408 144.539 22.2737 144.492 22.0182C144.445 21.7859 144.41 21.5421 144.387 21.2866C144.363 21.0311 144.34 20.7872 144.316 20.5549C146.191 19.3704 147.715 18.3021 148.887 17.3498C150.059 16.3742 150.984 15.5498 151.664 14.8762C152.438 14.0865 153.023 13.3665 153.422 12.7162C153.82 11.9266 154.148 11.0555 154.406 10.1033C154.664 9.15104 154.746 8.26845 154.652 7.45554C154.582 6.64263 154.301 5.9807 153.809 5.46973C153.316 4.93554 152.531 4.70327 151.453 4.77296C150.75 4.8194 150.082 5.06328 149.449 5.50457C148.84 5.94586 148.277 6.48005 147.762 7.10716C147.246 7.73425 146.789 8.40781 146.391 9.12781C145.992 9.82458 145.652 10.4865 145.371 11.1136C145.113 11.7408 144.902 12.2633 144.738 12.6814C144.598 13.0995 144.527 13.3201 144.527 13.3433C144.504 13.3897 144.469 13.2155 144.422 12.8207C144.398 12.4259 144.363 11.9382 144.316 11.3575C144.293 10.7537 144.258 10.1266 144.211 9.47619C144.164 8.82587 144.117 8.28006 144.07 7.83877C144.047 7.49038 144.012 7.03747 143.965 6.48005C143.895 5.57425 143.754 4.14585 143.543 2.19488ZM164.363 5.15618C165.184 4.90069 165.852 4.69166 166.367 4.52908C166.883 4.34327 167.305 4.19231 167.633 4.07618C168.008 3.93683 168.289 3.80908 168.477 3.69295L169.32 3.27489C169.648 3.11231 170.07 2.90327 170.586 2.64779C171.102 2.36907 171.77 2.02068 172.59 1.60262C172.402 2.4852 172.262 3.32133 172.168 4.11102C172.098 4.87747 172.039 5.56263 171.992 6.16651C171.922 6.86328 171.887 7.50199 171.887 8.08264C171.863 8.57039 171.828 9.22071 171.781 10.0336C171.758 10.8465 171.723 11.7291 171.676 12.6814C171.629 13.6336 171.582 14.6091 171.535 15.6078C171.488 16.6065 171.453 17.5472 171.43 18.4298C171.43 19.2891 171.441 20.0323 171.465 20.6595C171.512 21.2866 171.594 21.7163 171.711 21.9484C171.828 22.2272 171.98 22.4943 172.168 22.7498C172.332 22.982 172.52 23.2491 172.73 23.551C172.965 23.8298 173.246 24.1085 173.574 24.3872C173.035 24.5034 172.531 24.6078 172.062 24.7008C171.594 24.7704 171.184 24.8285 170.832 24.875C170.41 24.9447 170.035 25.0027 169.707 25.0491C169.355 25.0724 168.875 25.1305 168.266 25.2233C167.75 25.293 167.094 25.3859 166.297 25.5021C165.5 25.5949 164.516 25.6995 163.344 25.8156C163.953 25.444 164.434 25.084 164.785 24.7356C165.16 24.3872 165.441 24.0853 165.629 23.8298C165.84 23.5279 165.969 23.2375 166.016 22.9588C166.039 22.773 166.074 22.2737 166.121 21.4607C166.191 20.6246 166.25 19.6491 166.297 18.5343C166.367 17.3962 166.426 16.1884 166.473 14.9111C166.543 13.6104 166.59 12.4026 166.613 11.2878C166.637 10.1729 166.648 9.22071 166.648 8.43103C166.648 7.64135 166.613 7.16522 166.543 7.00264C166.449 6.84005 166.309 6.65425 166.121 6.44522C165.957 6.25941 165.734 6.06199 165.453 5.85296C165.195 5.64392 164.832 5.41167 164.363 5.15618Z" fill="#394BA7"/>
</svg>
