<svg width="122" height="46" viewBox="0 0 122 46" fill="none" xmlns="http://www.w3.org/2000/svg">
<g clip-path="url(#clip0_5760_140)">
<path d="M8.92188 44.5937C12.6953 44.5937 16.2578 42.7356 18.9531 40.8775C20.5 39.7859 21.9531 38.5549 23.3359 37.1382L20.3125 34.0259C17.875 36.3717 13.0469 39.6697 9.29688 39.6697C8.10156 39.6697 7.30469 39.2518 6.34375 37.5562C11.8047 36.0697 15.8359 31.9588 15.8359 28.1265C15.8359 24.6195 13.1641 22.32 9.67188 22.32C3.25 22.32 0.109375 29.6595 0.109375 34.9085C0.109375 40.0414 3.03906 44.5937 8.92188 44.5937ZM5.80469 33.6775C5.80469 31.6104 6.17969 26.7562 10.1875 26.7562C10.9375 26.7562 11.5234 27.7549 11.5234 29.1485C11.5234 31.0994 8.03125 33.6775 5.80469 33.6775ZM27.1875 25.6414C31.5469 20.3923 36.4688 13.5174 36.4688 7.64132C36.4688 3.43743 35.7422 0 30.9844 0C24.6328 0 20.9062 16.6994 19.4062 25.804C18.6562 30.3562 18.2578 34.0955 18 36.813C17.8594 38.3924 17.7656 39.8092 17.7188 41.0633C18.8438 41.7369 20.0156 42.3175 21.2578 42.8286C23.3906 43.7343 26.1094 44.5937 28.7578 44.5937H29.3438C29.9297 44.3614 30.4922 44.1291 31.0078 43.8736C31.9219 43.4324 32.9297 42.8982 33.4688 42.364C37.875 41.3653 41.1328 39.995 44.5781 36.9059L42.7734 33.0736C40.2891 35.5356 37.9922 36.5808 35.7188 37.9046C37.5703 35.071 37.9688 32.6556 37.9688 29.5201C37.9688 25.7575 35.7891 22.2968 32.1328 22.2968C30.7031 22.2968 29.3203 23.7368 27.5625 25.8968L27.1875 25.6414ZM29.6719 27.5924C32.1328 27.5924 32.7188 28.9627 32.7188 30.4955C32.7188 34.0492 31.3594 40.1343 28.125 40.1343C27.2109 40.1343 26.1797 39.9485 25.2656 39.7627C24.75 39.6466 24.2344 39.5304 23.7188 39.3679C23.7656 38.8337 23.8125 38.2531 23.8828 37.626C24 36.5343 24.1875 35.1175 24.4688 33.4453C25.1484 29.311 27.4922 27.5924 29.6719 27.5924ZM31.9688 6.31744C31.5 12.9135 27.0234 18.9291 24.4688 23.8065C25.2188 19.7187 28.1953 4.45937 30.7734 4.45937C31.8281 4.45937 31.9688 6.06196 31.9688 6.31744ZM42.7812 37.8117C42.9688 40.7614 43.0156 44.8492 46.6484 44.8492C48.8281 44.8492 51.7578 40.3898 53.5859 36.6505C53.6562 38.973 55.6719 41.226 59.0234 41.226C61.0156 41.226 63.3125 40.3898 65.375 39.0891V33.6311C64.6953 34.0723 64.0391 34.4904 63.4062 34.8388C62.3047 35.466 60.9688 36.0234 60.0312 36.0234C57.5 36.0234 56.8672 34.5136 56.8672 33.0272C56.8672 32.3072 56.9844 31.6337 57.1484 31.0994C57.2188 30.7975 57.3125 30.5188 57.4297 30.2401C58.8125 27.1975 59.7969 25.9433 59.7969 24.2479C59.7969 23.1097 58.6016 22.2968 56.7969 22.2968C55.4375 22.2968 54.2656 23.0865 54.0781 23.9459L47.9141 38.5085L47.5859 38.5317L48.5 23.8298C48.4766 23.0169 47.8672 22.2968 46.8125 22.2968C46.6484 22.2968 46.5312 22.32 46.3672 22.3433L43.5547 22.7846C42.5469 22.9471 42.3594 24.782 42.3594 27.964C42.3594 30.4259 42.5469 32.4234 42.7344 37.0684L42.7812 37.8117ZM77.2656 40.1575C77.2656 37.742 75.9062 36.395 73.3047 36.395C70.2812 36.395 69.0156 38.5782 69.0156 40.8311C69.0156 43.4788 70.5625 44.5937 72.8594 44.5937C77.1953 44.5937 77.2656 40.5524 77.2656 40.1575ZM95.7656 34.9317C93.7031 36.604 90.1875 40.1343 87.9609 40.1343C87 40.1343 86.7656 39.2518 86.7656 37.8582C86.7656 33.5614 89.9062 25.6878 89.9062 23.6207C89.9062 22.8078 89.5312 22.2968 88.2188 22.2968C86.8125 22.2968 84.3984 22.9471 83.9531 24.5497C82.8281 29.1949 80.7656 36.0001 80.7656 39.9253C80.7656 42.7356 81.8672 44.5937 85.125 44.5937C88.7344 44.5937 93.5156 41.6904 95.7656 39.6466V34.9317ZM85.2891 15.7704C85.2891 17.9071 86.5781 19.3007 89.3203 19.3007C92.5078 19.3007 93.8672 17.2336 93.8672 15.1432C93.8672 12.8207 92.0625 11.8916 89.8828 11.8916C86.4141 11.8916 85.2891 14.3536 85.2891 15.7704ZM104.938 27.0349C105.031 26.942 105.008 33.6079 105.289 34.8621C104.938 35.7679 104.539 36.5575 104.094 37.2775C103.344 38.5085 102.266 39.693 101.141 39.693C98.9609 39.693 98.5156 38.3227 98.5156 37.0917C98.5156 33.9795 100.789 29.0324 104.938 27.0349ZM120.359 34.6762C119.422 35.4659 118.531 36.1627 117.664 36.7898C116.141 37.8582 114.406 38.9033 113.234 38.9033C111.992 38.9033 111.594 37.2775 111.594 35.5123C111.594 34.1188 111.992 32.3304 112.297 31.4942C115.555 23.6903 119.422 17.2801 120.242 8.50067C120.289 7.92003 120.312 7.36261 120.312 6.8284C120.312 3.27485 119.234 0 116.281 0C110.328 0 105.125 11.6594 104.844 23.5743C97.7188 24.2246 92.8906 31.0066 92.8906 36.9291C92.8906 40.8079 94.8125 44.5937 98.8438 44.5937C101.703 44.5937 104.633 42.6891 106.953 40.4595C108.453 44.0594 111.312 44.5705 112.18 44.5705C113.727 44.5705 115.953 43.4324 117.781 42.3175C118.859 41.644 119.961 40.9007 121.062 40.0414L120.359 34.6762ZM115.953 10.1962C115.648 13.4711 114.289 17.6517 113.023 21.089C112.273 23.0865 111.453 25.0839 110.562 27.1046V26.8724C110.562 25.9433 110.562 23.2955 110.82 20.2298C111.008 17.9768 112.227 5.3884 115.227 5.3884C115.789 5.3884 116.094 5.94582 116.094 7.61809C116.094 8.24518 116.047 9.10454 115.953 10.1962Z" fill="black"/>
</g>
<defs>
<clipPath id="clip0_5760_140">
<rect width="122" height="45.5847" fill="white"/>
</clipPath>
</defs>
</svg>
