<svg width="24" height="24" viewBox="0 0 24 24" fill="none" xmlns="http://www.w3.org/2000/svg">
<path d="M13 21.8017H9C8.73478 21.8017 8.48043 21.6973 8.29289 21.5115C8.10536 21.3257 8 21.0736 8 20.8108V14.6668H6C5.73478 14.6668 5.48043 14.5624 5.29289 14.3765C5.10536 14.1907 5 13.9386 5 13.6758V10.1083C5 9.84547 5.10536 9.59341 5.29289 9.40757C5.48043 9.22173 5.73478 9.11732 6 9.11732H8V7.43267C8.0701 5.92278 8.74062 4.50182 9.86497 3.48047C10.9893 2.45912 12.476 1.92049 14 1.98233H17C17.2652 1.98233 17.5196 2.08674 17.7071 2.27258C17.8946 2.45842 18 2.71048 18 2.9733V6.5408C18 6.80362 17.8946 7.05568 17.7071 7.24152C17.5196 7.42736 17.2652 7.53177 17 7.53177H14V9.11732H17C17.1544 9.11616 17.307 9.15045 17.4458 9.2175C17.5846 9.28456 17.7058 9.38255 17.8 9.5038C17.8931 9.62688 17.9561 9.76975 17.9839 9.92111C18.0116 10.0725 18.0035 10.2282 17.96 10.3759L16.96 13.9433C16.8995 14.1577 16.768 14.3456 16.5866 14.4769C16.4052 14.6081 16.1844 14.675 15.96 14.6668H14V20.8108C14 21.0736 13.8946 21.3257 13.7071 21.5115C13.5196 21.6973 13.2652 21.8017 13 21.8017ZM10 19.8198H12V13.6758C12 13.413 12.1054 13.1609 12.2929 12.9751C12.4804 12.7892 12.7348 12.6848 13 12.6848H15.24L15.68 11.0993H13C12.7348 11.0993 12.4804 10.9949 12.2929 10.809C12.1054 10.6232 12 10.3711 12 10.1083V7.43267C12.0257 6.92439 12.2477 6.44538 12.62 6.09486C12.9923 5.74434 13.4864 5.54919 14 5.54983H16V3.96427H14C13.0068 3.90431 12.0298 4.23484 11.281 4.88416C10.5321 5.53347 10.0719 6.4492 10 7.43267V10.1083C10 10.3711 9.89464 10.6232 9.70711 10.809C9.51957 10.9949 9.26522 11.0993 9 11.0993H7V12.6848H9C9.26522 12.6848 9.51957 12.7892 9.70711 12.9751C9.89464 13.1609 10 13.413 10 13.6758V19.8198Z" fill="#6E7191"/>
</svg>
