<svg width="24" height="24" viewBox="0 0 24 24" fill="none" xmlns="http://www.w3.org/2000/svg">
<path d="M8.5096 19.8199H8.4296C6.81796 19.8059 5.22963 19.437 3.7796 18.7397C3.51288 18.6156 3.29326 18.4101 3.15291 18.1533C3.01255 17.8965 2.95883 17.602 2.9996 17.3127C3.04395 17.0216 3.17999 16.7517 3.38831 16.5417C3.59663 16.3317 3.86657 16.1923 4.1596 16.1434C5.05821 16.0246 5.92269 15.7244 6.6996 15.2614C5.35076 14.2164 4.31235 12.8292 3.69442 11.2468C3.07649 9.66447 2.90205 7.94593 3.1896 6.27332C3.22859 6.00839 3.34357 5.76014 3.52085 5.5581C3.69813 5.35607 3.93026 5.20876 4.1896 5.13371C4.44192 5.05518 4.71195 5.05183 4.96617 5.12406C5.22039 5.19629 5.44761 5.34092 5.6196 5.54001C6.20361 6.29887 6.9375 6.93188 7.77651 7.40042C8.61552 7.86895 9.54206 8.16319 10.4996 8.26518C10.5453 7.09767 11.0516 5.99458 11.9096 5.19317C12.338 4.78664 12.8438 4.46868 13.3974 4.2578C13.9511 4.04692 14.5415 3.94734 15.1344 3.96486C15.7273 3.98238 16.3107 4.11666 16.8507 4.35987C17.3907 4.60308 17.8764 4.95035 18.2796 5.38145C18.3846 5.47348 18.5152 5.53213 18.6542 5.5498C18.7933 5.56747 18.9345 5.54334 19.0596 5.48055C19.298 5.36911 19.5635 5.32716 19.8251 5.35959C20.0867 5.39203 20.3336 5.49751 20.5369 5.66372C20.7403 5.82994 20.8918 6.05004 20.9737 6.29835C21.0556 6.54666 21.0646 6.81293 20.9996 7.0661C20.769 8.00764 20.3319 8.8873 19.7196 9.64262C19.5846 12.4617 18.3305 15.1136 16.2305 17.02C14.1306 18.9265 11.3553 19.9329 8.5096 19.8199V19.8199ZM8.5096 17.838H8.5896C9.75227 17.8776 10.9113 17.6881 11.9995 17.2805C13.0878 16.8729 14.0835 16.2553 14.929 15.4635C15.7746 14.6717 16.4531 13.7214 16.9253 12.6677C17.3974 11.6141 17.6538 10.4781 17.6796 9.32551C17.6961 9.00964 17.8276 8.7104 18.0496 8.48319C18.2935 8.17722 18.5015 7.84476 18.6696 7.49222C18.3094 7.4929 17.953 7.41822 17.6239 7.27307C17.2948 7.12792 17.0002 6.91557 16.7596 6.64989C16.5282 6.42252 16.2534 6.24318 15.9511 6.12236C15.6489 6.00155 15.3254 5.9417 14.9996 5.9463C14.6705 5.93787 14.343 5.99393 14.0358 6.11127C13.7286 6.22861 13.4478 6.40492 13.2096 6.63007C12.8882 6.93232 12.6525 7.31292 12.5261 7.73378C12.3998 8.15465 12.3872 8.60102 12.4896 9.02822L12.7496 10.1579L11.5796 10.2372C10.3807 10.3341 9.17487 10.1716 8.04562 9.76091C6.91637 9.35025 5.89069 8.70125 5.0396 7.85888C5.0031 9.16339 5.3324 10.4524 5.9909 11.5825C6.64939 12.7127 7.61127 13.6397 8.7696 14.2605L9.7196 14.7957L9.0896 15.6875C8.40829 16.573 7.47479 17.2357 6.4096 17.5902C7.09292 17.7599 7.79517 17.8432 8.4996 17.838H8.5096Z" fill="#6E7191"/>
</svg>
