<svg width="24" height="24" viewBox="0 0 24 24" fill="none" xmlns="http://www.w3.org/2000/svg">
<path d="M22.5396 6.36202C22.4208 5.89171 22.1789 5.4608 21.8382 5.1128C21.4976 4.76481 21.0703 4.51206 20.5996 4.38007C18.8796 3.96387 11.9996 3.96387 11.9996 3.96387C11.9996 3.96387 5.1196 3.96387 3.3996 4.41971C2.92884 4.5517 2.50157 4.80445 2.16094 5.15244C1.82031 5.50044 1.57838 5.93135 1.4596 6.40166C1.14481 8.13145 0.990831 9.88621 0.999595 11.6439C0.988374 13.4148 1.14236 15.1829 1.4596 16.9258C1.59055 17.3815 1.8379 17.796 2.17774 18.1293C2.51758 18.4626 2.93842 18.7034 3.3996 18.8284C5.1196 19.2843 11.9996 19.2843 11.9996 19.2843C11.9996 19.2843 18.8796 19.2843 20.5996 18.8284C21.0703 18.6964 21.4976 18.4437 21.8382 18.0957C22.1789 17.7477 22.4208 17.3168 22.5396 16.8465C22.852 15.1297 23.0059 13.3883 22.9996 11.6439C23.0108 9.87298 22.8568 8.10483 22.5396 6.36202V6.36202Z" stroke="#6E7191" stroke-width="2" stroke-linecap="round" stroke-linejoin="round"/>
<path d="M9.75 14.8843L15.5 11.6438L9.75 8.40332V14.8843Z" stroke="#6E7191" stroke-width="2" stroke-linecap="round" stroke-linejoin="round"/>
</svg>
