<svg width="80" height="26" viewBox="0 0 80 26" fill="none" xmlns="http://www.w3.org/2000/svg">
<path d="M4.26411 2.15655C4.26411 2.77492 4.25211 3.50031 4.22811 4.33272C4.20411 5.14136 4.18011 5.75972 4.15611 6.18782C4.08411 7.40077 4.04811 8.61372 4.04811 9.82667C4.04811 10.7304 4.08411 11.6699 4.15611 12.645C4.90011 11.5747 5.70411 10.7899 6.56811 10.2904C7.43211 9.79099 8.47611 9.54127 9.70011 9.54127C10.5881 9.54127 11.4161 9.93369 12.1841 10.7185C12.9521 11.5034 13.4441 12.419 13.6601 13.4655C13.7321 14.3931 13.7681 15.5228 13.7681 16.8546C13.7681 17.7108 13.8161 18.8286 13.9121 20.2081C13.9601 20.7313 14.0921 21.2189 14.3081 21.6707C14.5481 22.1226 14.8841 22.3486 15.3161 22.3486C15.5321 22.3486 15.7001 22.3367 15.8201 22.3129C15.9641 22.2891 16.0961 22.2772 16.2161 22.2772C16.5521 22.2772 16.7801 22.3605 16.9001 22.5269C17.0441 22.6934 17.1161 22.9313 17.1161 23.2404C17.1161 23.8112 16.8281 24.2393 16.2521 24.5247C15.6761 24.8101 15.1481 24.9528 14.6681 24.9528C12.9401 24.9528 11.7521 24.2393 11.1041 22.8123C10.7441 22.0037 10.5161 20.9572 10.4201 19.673C10.3241 18.3649 10.2761 16.8427 10.2761 15.1066C10.2761 13.3942 9.68811 12.538 8.51211 12.538C7.86411 12.538 7.20411 12.8828 6.53211 13.5725C5.88411 14.2385 5.34411 15.1303 4.91211 16.2482C4.48011 17.3422 4.26411 18.4838 4.26411 19.673L4.30011 23.3831C4.30011 23.9064 4.09611 24.2988 3.68811 24.5604C3.28011 24.7983 2.89611 24.9172 2.53611 24.9172C2.00811 24.9172 1.52811 24.7626 1.09611 24.4534C0.664109 24.1204 0.448109 23.7518 0.448109 23.3475C0.616109 21.5637 0.700109 18.5789 0.700109 14.3931C0.700109 13.632 0.640109 10.8137 0.520109 5.9381L0.412109 2.656C0.412109 2.13277 0.652109 1.68089 1.13211 1.30035C1.61211 0.896037 2.15211 0.69388 2.75211 0.69388C3.28011 0.69388 3.66411 0.812795 3.90411 1.05063C4.14411 1.28846 4.26411 1.6571 4.26411 2.15655ZM21.6152 1.87115C22.4552 1.9425 23.1872 2.16844 23.8112 2.54898C24.4352 2.90573 24.7472 3.45274 24.7472 4.19002C24.7472 4.73704 24.4832 5.17703 23.9552 5.51C23.4512 5.81918 22.8392 5.97377 22.1192 5.97377C21.4232 5.97377 20.9432 5.7954 20.6792 5.43865C20.4152 5.0819 20.2832 4.71326 20.2832 4.33272C20.2832 3.61923 20.3552 3.02464 20.4992 2.54898C20.6672 2.07331 21.0392 1.84737 21.6152 1.87115ZM24.4952 17.6752V18.7097C24.4952 19.6373 24.5192 20.5173 24.5672 21.3497C24.6392 22.1583 24.7232 22.9788 24.8192 23.8112C24.7952 24.0491 24.6152 24.2988 24.2792 24.5604C23.9432 24.7983 23.6432 24.9172 23.3792 24.9172C22.9232 24.9172 22.4552 24.8339 21.9752 24.6674C21.5192 24.4772 21.2432 24.2512 21.1472 23.9896C21.0032 23.2286 20.9312 22.5507 20.9312 21.9561C20.9312 20.0059 20.8712 17.8179 20.7512 15.392C20.6552 13.2515 20.6072 11.7531 20.6072 10.8969C20.6072 10.4688 20.8232 10.1002 21.2552 9.79099C21.6872 9.48181 22.1432 9.32722 22.6232 9.32722C23.3192 9.32722 23.7992 9.48181 24.0632 9.79099C24.3512 10.1002 24.4952 10.5877 24.4952 11.2537V17.6752ZM36.9061 3.76193C36.1861 3.76193 35.7421 4.35651 35.5741 5.54567C35.4061 7.16294 35.3221 8.38778 35.3221 9.22019C35.8021 9.26776 36.3061 9.29154 36.8341 9.29154C37.1701 9.29154 37.6021 9.26776 38.1301 9.22019L39.0661 9.18452C39.5461 9.18452 39.9061 9.26776 40.1461 9.43424C40.3861 9.60073 40.5061 9.87423 40.5061 10.2548C40.5061 10.778 40.3261 11.2299 39.9661 11.6104C39.6301 11.9672 39.2341 12.1455 38.7781 12.1455C37.0501 12.1455 35.8861 12.2288 35.2861 12.3953C35.2861 13.846 35.3581 15.9033 35.5021 18.567L35.5741 20.3151L35.7181 23.0977C35.7661 23.7875 35.6941 24.275 35.5021 24.5604C35.3341 24.822 34.9621 24.9528 34.3861 24.9528C33.3301 24.9528 32.6461 24.3226 32.3341 23.0621C32.1421 22.1345 31.9861 20.8383 31.8661 19.1735C31.7461 17.5087 31.6861 16.0222 31.6861 14.7141C31.6861 14.0244 31.7221 13.2396 31.7941 12.3596C31.7461 12.3358 31.6141 12.3239 31.3981 12.3239C31.1821 12.3239 31.0261 12.3358 30.9301 12.3596C30.2101 12.4072 29.6821 12.4309 29.3461 12.4309C29.1301 12.4309 28.9141 12.2882 28.6981 12.0028C28.4821 11.6937 28.3741 11.325 28.3741 10.8969C28.3741 10.6591 28.4581 10.445 28.6261 10.2548C28.7941 10.0407 28.9981 9.88613 29.2381 9.79099C29.5981 9.60073 30.1141 9.50559 30.7861 9.50559L31.8661 9.54127C31.8661 6.16404 32.2501 3.82138 33.0181 2.5133C33.7381 1.27657 34.9261 0.658203 36.5821 0.658203C37.5421 0.658203 38.4181 0.896036 39.2101 1.3717C39.5461 1.58575 39.7981 1.84737 39.9661 2.15655C40.1581 2.46574 40.2541 2.76303 40.2541 3.04843C40.2541 3.40518 40.1101 3.77382 39.8221 4.15435C39.5581 4.53488 39.1501 4.72515 38.5981 4.72515C38.3821 4.72515 38.1061 4.55867 37.7701 4.2257C37.6501 4.10678 37.5181 3.99976 37.3741 3.90463C37.2301 3.80949 37.0741 3.76193 36.9061 3.76193ZM47.5924 19.2449C47.5924 20.1486 47.7244 20.8502 47.9884 21.3497C48.2764 21.8253 48.6364 22.0632 49.0684 22.0632C49.3084 22.0632 49.5364 22.0513 49.7524 22.0275C49.9684 21.9799 50.1844 21.9561 50.4004 21.9561C50.6404 21.9561 50.8444 22.0751 51.0124 22.3129C51.2044 22.5507 51.3004 22.8123 51.3004 23.0977C51.3004 23.6685 51.0244 24.1204 50.4724 24.4534C49.9444 24.7626 49.2244 24.9172 48.3124 24.9172C47.6644 24.9172 47.0044 24.7269 46.3324 24.3464C45.6844 23.9421 45.1444 23.3237 44.7124 22.4913C44.2804 21.6351 44.0644 20.5767 44.0644 19.3162C44.0644 16.6049 44.1124 14.3098 44.2084 12.4309C44.3284 10.1953 44.3884 7.37699 44.3884 3.97598C44.3884 2.90573 44.4484 2.15655 44.5684 1.72845C44.7124 1.39549 44.9404 1.14576 45.2524 0.979278C45.5884 0.789012 45.9364 0.69388 46.2964 0.69388C46.6564 0.69388 46.9684 0.753338 47.2324 0.872254C47.5204 0.99117 47.7124 1.18144 47.8084 1.44305C47.9044 1.72845 47.9644 2.01385 47.9884 2.29925C48.0364 2.56087 48.0604 2.9414 48.0604 3.44085C48.0604 4.41597 48.0244 5.35541 47.9524 6.25917C47.9044 7.3532 47.8804 8.14994 47.8804 8.64939C47.6884 12.8353 47.5924 16.3671 47.5924 19.2449ZM56.0918 1.87115C56.9318 1.9425 57.6638 2.16844 58.2878 2.54898C58.9118 2.90573 59.2238 3.45274 59.2238 4.19002C59.2238 4.73704 58.9598 5.17703 58.4318 5.51C57.9278 5.81918 57.3158 5.97377 56.5958 5.97377C55.8998 5.97377 55.4198 5.7954 55.1558 5.43865C54.8918 5.0819 54.7598 4.71326 54.7598 4.33272C54.7598 3.61923 54.8318 3.02464 54.9758 2.54898C55.1438 2.07331 55.5158 1.84737 56.0918 1.87115ZM58.9718 17.6752V18.7097C58.9718 19.6373 58.9958 20.5173 59.0438 21.3497C59.1158 22.1583 59.1998 22.9788 59.2958 23.8112C59.2958 24.0966 59.1278 24.3583 58.7918 24.5961C58.4558 24.8101 58.1438 24.9172 57.8558 24.9172C57.3998 24.9172 56.9318 24.8339 56.4518 24.6674C55.9958 24.4772 55.7198 24.2512 55.6238 23.9896C55.4798 23.2286 55.4078 22.5507 55.4078 21.9561C55.4078 20.0059 55.3478 17.8179 55.2278 15.392C55.1318 13.2515 55.0838 11.7531 55.0838 10.8969C55.0838 10.4688 55.2998 10.1002 55.7318 9.79099C56.1638 9.48181 56.6198 9.32722 57.0998 9.32722C57.7958 9.32722 58.2758 9.48181 58.5398 9.79099C58.8278 10.1002 58.9718 10.5877 58.9718 11.2537V17.6752ZM76.1347 9.04182C76.6147 9.04182 76.9867 9.16073 77.2507 9.39857C77.5387 9.61262 77.6827 9.88613 77.6827 10.2191C77.6827 10.4569 77.6347 10.7066 77.5387 10.9683C77.4667 11.2061 77.3827 11.4558 77.2867 11.7174C76.7347 13.0017 75.5707 14.7974 73.7947 17.1044C75.6187 19.4351 77.0947 20.9335 78.2227 21.5994C78.3187 21.647 78.4987 21.7302 78.7627 21.8491C79.0267 21.968 79.2307 22.1107 79.3747 22.2772C79.5427 22.4437 79.6267 22.634 79.6267 22.848C79.6267 23.3713 79.4227 23.7994 79.0147 24.1323C78.6307 24.4415 78.1627 24.5961 77.6107 24.5961C76.6747 24.5961 75.6547 24.0848 74.5507 23.0621C73.4467 22.0156 72.5107 20.9216 71.7427 19.78C71.1907 20.6124 70.5547 21.4448 69.8347 22.2772C69.1387 23.0859 68.4907 23.7756 67.8907 24.3464C67.6507 24.608 67.3627 24.8101 67.0267 24.9528C66.7147 25.0955 66.4027 25.1669 66.0907 25.1669C65.6587 25.1669 65.2747 25.0718 64.9387 24.8815C64.6027 24.6912 64.4347 24.3583 64.4347 23.8826C64.4347 23.7637 64.5187 23.5734 64.6867 23.3118C64.8547 23.0264 64.9507 22.8599 64.9747 22.8123C65.2627 22.3129 65.6467 21.8016 66.1267 21.2783C66.6067 20.7313 66.9067 20.3865 67.0267 20.2438C67.3147 19.887 67.6267 19.5421 67.9627 19.2092C68.1547 18.9951 68.4427 18.6622 68.8267 18.2103C69.2107 17.7584 69.4747 17.4016 69.6187 17.14L68.3587 15.4276C67.7587 14.7379 67.2427 14.1909 66.8107 13.7866C66.3787 13.3585 66.0307 13.1444 65.7667 13.1444C65.3827 13.1444 65.0227 13.2515 64.6867 13.4655C64.3987 13.6558 64.1107 13.7509 63.8227 13.7509C63.5107 13.7509 63.2707 13.6796 63.1027 13.5369C62.9347 13.3704 62.8507 13.192 62.8507 13.0017C62.8507 12.1931 63.1747 11.5034 63.8227 10.9326C64.4707 10.338 65.2867 10.0407 66.2707 10.0407C67.2067 10.0407 68.0347 10.3618 68.7547 11.0039C69.4987 11.6223 70.2307 12.4547 70.9507 13.5012C71.0467 13.5963 71.1547 13.7509 71.2747 13.965C71.3947 14.179 71.5147 14.3574 71.6347 14.5001C71.8987 14.1196 72.3787 13.3823 73.0747 12.2882C73.8187 10.9802 74.2627 10.231 74.4067 10.0407C74.9107 9.37478 75.4867 9.04182 76.1347 9.04182Z" fill="#D00707"/>
</svg>
