<svg width="184" height="72" viewBox="0 0 184 72" fill="none" xmlns="http://www.w3.org/2000/svg">
<path d="M20.3574 56.7735H12.4358V24.5476H0.498047V16.4841H32.2674V24.5476H20.3574V56.7735ZM44.593 18.507C44.593 19.2187 44.4546 19.8837 44.1774 20.5018C43.9191 21.1199 43.5591 21.6631 43.0974 22.1313C42.6356 22.5809 42.0911 22.9461 41.4633 23.2271C40.8537 23.4893 40.1983 23.6204 39.4965 23.6204C38.795 23.6204 38.1301 23.4893 37.5023 23.2271C36.893 22.9461 36.3575 22.5809 35.8959 22.1313C35.4527 21.6631 35.0927 21.1199 34.8156 20.5018C34.5571 19.8837 34.4279 19.2187 34.4279 18.507C34.4279 17.8139 34.5571 17.1584 34.8156 16.5403C35.0927 15.9034 35.4527 15.3602 35.8959 14.9107C36.3575 14.4424 36.893 14.0772 37.5023 13.815C38.1301 13.534 38.795 13.3936 39.4965 13.3936C40.1983 13.3936 40.8537 13.534 41.4633 13.815C42.0911 14.0772 42.6356 14.4424 43.0974 14.9107C43.5591 15.3602 43.9191 15.9034 44.1774 16.5403C44.4546 17.1584 44.593 17.8139 44.593 18.507ZM43.2914 56.7735H35.6743V26.6829H43.2914V56.7735ZM75.0053 32.6673L69.4655 38.3145C69.1887 37.5278 68.8101 36.8254 68.3299 36.2073C67.85 35.5705 67.3054 35.0367 66.6958 34.6059C66.1051 34.1751 65.4588 33.8473 64.7569 33.6225C64.0554 33.3978 63.335 33.2854 62.5964 33.2854C61.5625 33.2854 60.5838 33.5008 59.6607 33.9316C58.7558 34.3624 57.9616 34.9711 57.2787 35.7578C56.6138 36.5258 56.0874 37.4436 55.6998 38.5114C55.3122 39.5789 55.1182 40.7589 55.1182 42.0512C55.1182 43.1 55.3122 44.0835 55.6998 45.0015C56.0874 45.9191 56.6138 46.7246 57.2787 47.4174C57.9616 48.1106 58.7558 48.6538 59.6607 49.047C60.5838 49.4405 61.5625 49.6369 62.5964 49.6369C63.335 49.6369 64.046 49.5341 64.7293 49.3281C65.4127 49.1222 66.0495 48.8318 66.6406 48.457C67.2498 48.0638 67.7853 47.5954 68.247 47.0522C68.7269 46.4903 69.1149 45.8723 69.4103 45.1979L74.9497 50.8453C74.2482 51.8568 73.4355 52.7652 72.5124 53.5704C71.6074 54.376 70.6197 55.0595 69.5487 55.6215C68.4962 56.1835 67.3791 56.6051 66.1974 56.8859C65.0341 57.1855 63.8338 57.3354 62.5964 57.3354C60.5101 57.3354 58.5436 56.9419 56.697 56.1555C54.869 55.3499 53.2625 54.2544 51.8777 52.868C50.511 51.4821 49.4309 49.8617 48.6368 48.0074C47.843 46.1531 47.4459 44.1679 47.4459 42.0512C47.4459 39.7473 47.843 37.5934 48.6368 35.5892C49.4309 33.5851 50.511 31.8431 51.8777 30.3634C53.2625 28.865 54.869 27.6849 56.697 26.8233C58.5436 25.9617 60.5101 25.5309 62.5964 25.5309C63.8338 25.5309 65.0432 25.6901 66.225 26.0086C67.4253 26.327 68.5609 26.7952 69.6319 27.4133C70.7214 28.0127 71.7182 28.7526 72.6232 29.6329C73.5463 30.5133 74.3404 31.5247 75.0053 32.6673ZM86.3337 56.7735H78.7166V14.714H86.3337V41.2365L97.6065 26.739H106.304L96.4712 39.2697L106.304 56.7735H97.6065L91.5962 45.8443L86.3337 52.9244V56.7735ZM118.214 18.507C118.214 19.2187 118.075 19.8837 117.798 20.5018C117.54 21.1199 117.18 21.6631 116.718 22.1313C116.257 22.5809 115.712 22.9461 115.084 23.2271C114.475 23.4893 113.819 23.6204 113.117 23.6204C112.416 23.6204 111.751 23.4893 111.123 23.2271C110.514 22.9461 109.978 22.5809 109.517 22.1313C109.074 21.6631 108.714 21.1199 108.436 20.5018C108.178 19.8837 108.049 19.2187 108.049 18.507C108.049 17.8139 108.178 17.1584 108.436 16.5403C108.714 15.9034 109.074 15.3602 109.517 14.9107C109.978 14.4424 110.514 14.0772 111.123 13.815C111.751 13.534 112.416 13.3936 113.117 13.3936C113.819 13.3936 114.475 13.534 115.084 13.815C115.712 14.0772 116.257 14.4424 116.718 14.9107C117.18 15.3602 117.54 15.9034 117.798 16.5403C118.075 17.1584 118.214 17.8139 118.214 18.507ZM116.912 56.7735H109.295V26.6829H116.912V56.7735ZM137.575 56.7735C135.747 56.7735 134.029 56.4271 132.423 55.7339C130.816 55.0223 129.404 54.0576 128.185 52.84C126.985 51.6037 126.034 50.1709 125.332 48.5414C124.649 46.9118 124.307 45.1699 124.307 43.3156V34.3811H120.624V26.739H124.307V14.714H131.841V26.739H143.308V34.3811H131.841V43.3156C131.841 44.1211 131.989 44.8795 132.284 45.5915C132.58 46.2843 132.986 46.893 133.503 47.4174C134.02 47.9422 134.629 48.3634 135.331 48.6818C136.033 48.9818 136.78 49.1314 137.575 49.1314H143.308V56.7735H137.575ZM170.729 56.7735H145.995L158.487 34.3811H145.995V26.739H170.729L158.237 49.1314H170.729V56.7735Z" fill="#1D4ED8"/>
<path d="M180.671 33.4683C180.665 33.4649 180.659 33.4629 180.653 33.4599L178.179 32.0103C178.025 32.1883 177.815 32.3066 177.584 32.3451C177.354 32.3837 177.118 32.34 176.915 32.2216C176.713 32.103 176.557 31.917 176.475 31.6951C176.393 31.4733 176.389 31.2294 176.464 31.0049L173.973 29.5453C173.906 29.5062 173.827 29.4957 173.752 29.5159C173.678 29.5362 173.614 29.5856 173.575 29.6534L166.18 42.6467L166.18 42.6475C166.16 42.6809 166.148 42.7181 166.143 42.7564C166.138 42.7952 166.141 42.8339 166.151 42.8715C166.16 42.9091 166.177 42.944 166.201 42.9751C166.224 43.0058 166.253 43.0315 166.286 43.0511L168.778 44.5087C168.932 44.3311 169.142 44.213 169.373 44.1742C169.603 44.1359 169.839 44.1796 170.042 44.2978C170.244 44.4163 170.399 44.602 170.482 44.8233C170.565 45.0446 170.569 45.2882 170.495 45.5126L172.954 46.9515C172.964 46.9592 172.973 46.9672 172.984 46.9738C173.018 46.9933 173.054 47.0056 173.092 47.011C173.13 47.016 173.169 47.0133 173.205 47.0033C173.242 46.9933 173.277 46.9761 173.307 46.9523C173.338 46.9289 173.363 46.8993 173.382 46.8656V46.866L180.778 33.8718C180.797 33.8382 180.809 33.8011 180.814 33.7626C180.819 33.7242 180.817 33.6851 180.807 33.6476C180.797 33.6102 180.78 33.5751 180.757 33.5442C180.733 33.5135 180.704 33.4877 180.671 33.4683ZM178.551 34.4769L172.786 44.6062C172.766 44.6399 172.741 44.6695 172.711 44.6929C172.68 44.7167 172.646 44.7339 172.609 44.7439C172.572 44.7539 172.533 44.7566 172.495 44.7516C172.458 44.7466 172.421 44.7339 172.388 44.7144L168.514 42.4453C168.48 42.4258 168.451 42.4001 168.428 42.3694C168.405 42.3387 168.388 42.3034 168.378 42.2662C168.368 42.2286 168.366 42.1895 168.37 42.1511C168.376 42.1128 168.388 42.0756 168.407 42.0422L174.172 31.9128C174.211 31.845 174.274 31.7956 174.349 31.7753C174.423 31.7551 174.503 31.7656 174.57 31.8048L178.444 34.074C178.477 34.0933 178.506 34.1191 178.53 34.1498C178.553 34.1806 178.57 34.2156 178.58 34.2531C178.59 34.2905 178.592 34.3295 178.587 34.368C178.582 34.4064 178.57 34.4434 178.551 34.4769Z" fill="#5F2EEA"/>
<path d="M175.445 37.9887L174.218 37.7572L174.046 36.5671C174.043 36.5496 174.035 36.5332 174.023 36.5205C174.011 36.5076 173.995 36.499 173.978 36.4957C173.96 36.4923 173.943 36.4945 173.927 36.5018C173.911 36.5092 173.898 36.5214 173.889 36.5368L173.294 37.5824L172.097 37.3567C172.08 37.3535 172.062 37.3557 172.046 37.3631C172.03 37.3706 172.017 37.3827 172.008 37.3981C172 37.4134 171.996 37.431 171.997 37.4487C171.999 37.4663 172.006 37.483 172.017 37.4965L172.809 38.4352L172.213 39.4805C172.204 39.4962 172.2 39.5138 172.202 39.5315C172.204 39.5495 172.211 39.5664 172.222 39.5798C172.234 39.5933 172.249 39.6025 172.266 39.6067C172.283 39.6109 172.301 39.6097 172.317 39.6032L173.419 39.1598L174.231 40.1222C174.242 40.1353 174.257 40.1449 174.274 40.1491C174.291 40.1533 174.309 40.1522 174.325 40.146C174.341 40.1399 174.355 40.1288 174.365 40.1142C174.375 40.0996 174.38 40.0823 174.379 40.0647L174.358 38.7743L175.471 38.1475C175.486 38.1388 175.498 38.1256 175.506 38.1097C175.514 38.0938 175.516 38.076 175.514 38.0586C175.511 38.0412 175.502 38.0252 175.49 38.0128C175.478 38.0003 175.462 37.9919 175.445 37.9887Z" fill="#5F2EEA"/>
</svg>
